<?xml version="1.0" encoding="UTF-8"?>
<svg width="204px" height="34px" viewBox="0 0 204 34" version="1.1" xmlns="http://www.w3.org/2000/svg" xmlns:xlink="http://www.w3.org/1999/xlink">
    <!-- Generator: Sketch 51.3 (57544) - http://www.bohemiancoding.com/sketch -->
    <title>Group 2</title>
    <desc>Created with Sketch.</desc>
    <defs></defs>
    <g id="Page-3" stroke="none" stroke-width="1" fill="none" fill-rule="evenodd">
        <g id="LAND-FullStack" transform="translate(-120.000000, -24.000000)">
            <g id="Group-2" transform="translate(120.000000, 24.000000)">
                <path d="M42.0710776,21.1201017 C41.9642488,21.1373618 41.8546454,21.1463325 41.7429485,21.1463325 C40.6153164,21.1463325 39.7013764,20.2320544 39.7013764,19.1044222 C39.7013764,17.97679 40.6153164,17.062512 41.7429485,17.062512 C41.854604,17.062512 41.9641676,17.071476 42.0709589,17.0887236 C41.4413431,16.2076761 40.4099786,15.6332762 39.2445417,15.6332762 C37.327736,15.6332762 35.7737337,17.1876166 35.7737337,19.1044222 C35.7737337,21.021566 37.327736,22.5755683 39.2445417,22.5755683 C40.4100519,22.5755683 41.4414728,22.0012212 42.0710776,21.1201017 Z M11.5151335,21.1201486 C11.4083964,21.1373781 11.2988903,21.1463325 11.1872947,21.1463325 C10.0596625,21.1463325 9.14538442,20.2320544 9.14538442,19.1044222 C9.14538442,17.97679 10.0596625,17.062512 11.1872947,17.062512 C11.298849,17.062512 11.4083152,17.0714598 11.5150148,17.0886767 C10.8854939,16.2076557 9.85427027,15.6332762 8.68885399,15.6332762 C6.77171022,15.6332762 5.21804608,17.1876166 5.21804608,19.1044222 C5.21804608,21.021566 6.77171022,22.5755683 8.68885399,22.5755683 C9.85434352,22.5755683 10.8856235,22.0012415 11.5151335,21.1201486 Z M44.1533426,-6.7624119e-05 C62.9697538,43.5349877 8.6888878,32.8845271 29.4734989,20.1678115 L18.4281134,20.1678115 C42.3014561,41.0558875 -14.9758345,39.6340904 3.87979858,2.77049253 C7.81349358,12.5130994 14.554942,8.66630134 23.3798895,8.00730431 C32.1196307,7.35439344 39.7807671,10.7721164 44.1533426,-6.7624119e-05 Z" id="Combined-Shape" fill="#024FEB"></path>
                <path d="M65.0134899,19.0545494 C64.9925264,17.648644 64.0826439,16.821601 62.9042936,16.821601 C61.5599261,16.821601 60.6087929,17.7105201 60.3606124,19.0545494 L65.0134899,19.0545494 Z M62.9661697,14.8361569 C65.9852485,14.8361569 67.6396725,17.0488181 67.6396725,19.8403417 C67.6396725,20.1713618 67.5984218,20.5226691 67.5564949,20.8536891 L60.2987363,20.8536891 C60.4640773,22.6940795 61.8699827,23.6452128 63.4625307,23.6452128 C64.5377542,23.6452128 65.633603,23.1694771 66.4816095,22.4871497 L67.5152442,24.369129 C66.4403588,25.3202622 64.7859347,25.8784993 63.2762263,25.8784993 C59.7814118,25.8784993 57.5897141,23.3557815 57.5897141,20.3573281 C57.5897141,17.1106941 59.8023753,14.8361569 62.9661697,14.8361569 Z M74.0092559,14.8362245 C75.1879443,14.8362245 76.4078834,15.2703714 77.0905489,16.2215046 L77.1317996,16.2215046 C77.1317996,16.2215046 77.0905489,15.9526987 77.0905489,15.6013914 L77.0905489,10.9485139 L79.6961062,10.9485139 L79.6961062,25.6303864 L77.2349264,25.6303864 L77.2349264,24.7205039 C77.2349264,24.3276077 77.2761771,24.0588019 77.2761771,24.0588019 L77.2349264,24.0588019 C76.6144751,25.1340254 75.4151614,25.8785669 73.9061291,25.8785669 C71.0730167,25.8785669 69.2322882,23.624655 69.2322882,20.3573957 C69.2322882,17.007635 71.2173942,14.8362245 74.0092559,14.8362245 Z M74.505617,23.6659057 C75.8702717,23.6659057 77.152425,22.6731837 77.152425,20.3367704 C77.152425,18.7029716 76.3044185,17.0901364 74.5262423,17.0901364 C73.0993734,17.0901364 71.8790962,18.2688248 71.8790962,20.3573957 C71.8790962,22.3631271 72.9546578,23.6659057 74.505617,23.6659057 Z M82.4263624,15.0842698 L85.0528832,15.0842698 L85.0528832,21.3293572 C85.0528832,22.6115105 85.3835651,23.4798042 86.6863438,23.4798042 C88.5889484,23.4798042 89.6435465,21.8047547 89.6435465,19.9231136 L89.6435465,15.0842698 L92.2487657,15.0842698 L92.2487657,25.6302511 L89.7260479,25.6302511 L89.7260479,24.3896867 C89.7260479,23.9967906 89.787924,23.6657705 89.787924,23.6657705 L89.7466733,23.6657705 C89.2506504,24.7413321 87.8856575,25.8784317 86.0865178,25.8784317 C83.8119806,25.8784317 82.4263624,24.7413321 82.4263624,21.8669689 L82.4263624,15.0842698 Z M100.169443,14.8362921 C101.596312,14.8362921 103.209148,15.3116897 104.222495,16.4075386 L103.043807,18.2066782 C102.382105,17.5449762 101.348132,17.0692406 100.314497,17.0692406 C98.3706419,17.0692406 97.109114,18.5376983 97.109114,20.336838 C97.109114,22.1150142 98.3706419,23.645348 100.396999,23.645348 C101.513811,23.645348 102.712787,23.0661474 103.498917,22.3013186 L104.512264,24.1623344 C103.519542,25.2169325 101.865456,25.8786345 100.169443,25.8786345 C96.6749671,25.8786345 94.4416806,23.4177928 94.4416806,20.3574633 C94.4416806,17.3590099 96.6749671,14.8362921 100.169443,14.8362921 Z M111.750412,19.0132987 L112.205184,19.0132987 L112.205184,18.8685831 C112.205184,17.483303 111.316265,17.0075674 110.220078,17.0075674 C109.186105,17.0075674 108.131507,17.4417142 107.283839,18.0205767 L106.311742,16.1389356 C107.180374,15.4359828 108.876049,14.8361569 110.447633,14.8361569 C113.197568,14.8361569 114.831367,16.3664907 114.831367,19.0339241 L114.831367,25.6303188 L112.391489,25.6303188 L112.391489,24.7410616 C112.391489,24.3069148 112.453365,23.9762328 112.453365,23.9762328 L112.412114,23.9762328 C111.771037,25.092707 110.509509,25.8784993 109.08264,25.8784993 C107.180374,25.8784993 105.608789,24.6379348 105.608789,22.7147049 C105.608789,19.5509105 109.413661,19.0132987 111.750412,19.0132987 Z M109.806557,23.8727679 C111.274676,23.8727679 112.22581,22.3840229 112.22581,21.1018696 L112.22581,20.8124384 L111.771037,20.8124384 C110.447633,20.8124384 108.214347,20.9984047 108.214347,22.4871497 C108.214347,23.1901024 108.751959,23.8727679 109.806557,23.8727679 Z M118.037325,17.3177254 L116.67267,17.3177254 L116.67267,15.2291545 L118.099539,15.2291545 L118.099539,12.2100757 L120.663508,12.2100757 L120.663508,15.2291545 L123.062135,15.2291545 L123.062135,17.3177254 L120.663508,17.3177254 L120.663508,21.432653 C120.663508,23.1695785 122.0285,23.417759 122.752078,23.417759 C122.896794,23.417759 123.020884,23.417759 123.227814,23.3765083 L123.227814,25.6716709 C123.020884,25.6926344 122.772704,25.7338851 122.421397,25.7338851 C120.952939,25.7338851 118.037325,25.2994001 118.037325,21.763335 L118.037325,17.3177254 Z M125.192193,25.6304878 L125.192193,22.9836798 L127.818714,22.9836798 L127.818714,25.6304878 L125.192193,25.6304878 Z M135.676738,14.8362921 C137.103607,14.8362921 138.716442,15.3116897 139.72979,16.4075386 L138.551101,18.2066782 C137.889399,17.5449762 136.855427,17.0692406 135.821792,17.0692406 C133.877937,17.0692406 132.616409,18.5376983 132.616409,20.336838 C132.616409,22.1150142 133.877937,23.645348 135.904293,23.645348 C137.021106,23.645348 138.220081,23.0661474 139.006212,22.3013186 L140.019559,24.1623344 C139.026837,25.2169325 137.372751,25.8786345 135.676738,25.8786345 C132.182262,25.8786345 129.948975,23.4177928 129.948975,20.3574633 C129.948975,17.3590099 132.182262,14.8362921 135.676738,14.8362921 Z M146.823323,14.8361907 C150.049332,14.8361907 152.634264,17.1313533 152.634264,20.3573619 C152.634264,23.6039959 150.049332,25.8785331 146.844287,25.8785331 C143.639242,25.8785331 141.05431,23.6039959 141.05431,20.3573619 C141.05431,17.1313533 143.639242,14.8361907 146.823323,14.8361907 Z M146.844287,23.6452466 C148.560587,23.6452466 149.987456,22.3218426 149.987456,20.3573619 C149.987456,18.4135066 148.560587,17.0694772 146.844287,17.0694772 C145.127987,17.0694772 143.722081,18.4135066 143.722081,20.3573619 C143.722081,22.3218426 145.127987,23.6452466 146.844287,23.6452466 Z M154.702953,15.0842698 L157.329474,15.0842698 L157.329474,21.3293572 C157.329474,22.6115105 157.660156,23.4798042 158.962935,23.4798042 C160.865539,23.4798042 161.920137,21.8047547 161.920137,19.9231136 L161.920137,15.0842698 L164.525356,15.0842698 L164.525356,25.6302511 L162.002639,25.6302511 L162.002639,24.3896867 C162.002639,23.9967906 162.064515,23.6657705 162.064515,23.6657705 L162.023264,23.6657705 C161.527241,24.7413321 160.162248,25.8784317 158.363109,25.8784317 C156.088571,25.8784317 154.702953,24.7413321 154.702953,21.8669689 L154.702953,15.0842698 Z M167.35901,15.0842698 L169.882066,15.0842698 L169.882066,16.9452855 C169.882066,17.3385198 169.840815,17.6692017 169.840815,17.6692017 L169.882066,17.6692017 C170.357463,16.1804568 171.639617,14.9395542 173.231826,14.9395542 C173.397167,14.9395542 173.562847,14.9601795 173.728188,14.9808049 L173.728188,17.5657368 C173.624723,17.5451115 173.314328,17.5244861 173.087111,17.5244861 C170.936664,17.5244861 169.985531,19.3855019 169.985531,21.3706079 L169.985531,25.6302511 L167.35901,25.6302511 L167.35901,15.0842698 Z M175.879412,22.5906146 C176.664866,23.3145308 177.822929,23.7486777 178.877528,23.7486777 C179.808035,23.7486777 180.345647,23.3557815 180.345647,22.6940795 C180.345647,21.0396555 175.113907,21.4535151 175.113907,17.9999513 C175.113907,15.9323439 176.933672,14.8361569 179.146333,14.8361569 C180.407861,14.8361569 181.731265,15.1878023 182.703362,16.0354707 L181.731265,17.875861 C181.111152,17.3382493 179.99434,16.9659785 179.063832,16.9659785 C178.153949,16.9659785 177.595374,17.3176239 177.595374,17.979326 C177.595374,19.6543754 182.827452,19.1786397 182.827452,22.6322035 C182.827452,24.4928811 181.25553,25.8784993 178.836277,25.8784993 C177.367819,25.8784993 175.796573,25.3821383 174.700724,24.3275401 L175.879412,22.5906146 Z M189.734309,14.8361569 C192.753388,14.8361569 194.407812,17.0488181 194.407812,19.8403417 C194.407812,20.1713618 194.366561,20.5226691 194.324635,20.8536891 L187.066876,20.8536891 C187.232217,22.6940795 188.638122,23.6452128 190.23067,23.6452128 C191.305894,23.6452128 192.401743,23.1694771 193.249749,22.4871497 L194.283384,24.369129 C193.208498,25.3202622 191.554074,25.8784993 190.044366,25.8784993 C186.549551,25.8784993 184.357854,23.3557815 184.357854,20.3573281 C184.357854,17.1106941 186.570515,14.8361569 189.734309,14.8361569 Z M191.78163,19.0545494 C191.760666,17.648644 190.850784,16.821601 189.672433,16.821601 C188.328066,16.821601 187.376933,17.7105201 187.128752,19.0545494 L191.78163,19.0545494 Z M196.931375,22.5906146 C197.716829,23.3145308 198.874892,23.7486777 199.929491,23.7486777 C200.859998,23.7486777 201.39761,23.3557815 201.39761,22.6940795 C201.39761,21.0396555 196.16587,21.4535151 196.16587,17.9999513 C196.16587,15.9323439 197.985635,14.8361569 200.198296,14.8361569 C201.459824,14.8361569 202.783228,15.1878023 203.755325,16.0354707 L202.783228,17.875861 C202.163115,17.3382493 201.046303,16.9659785 200.115795,16.9659785 C199.205912,16.9659785 198.647337,17.3176239 198.647337,17.979326 C198.647337,19.6543754 203.879415,19.1786397 203.879415,22.6322035 C203.879415,24.4928811 202.307493,25.8784993 199.88824,25.8784993 C198.419782,25.8784993 196.848536,25.3821383 195.752687,24.3275401 L196.931375,22.5906146 Z" id="Combined-Shape" fill="#000000"></path>
            </g>
        </g>
    </g>
</svg>